<svg id="visual" viewBox="0 0 1920 1080" width="1920" height="1080" xmlns="http://www.w3.org/2000/svg" xmlns:xlink="http://www.w3.org/1999/xlink" version="1.1"><path d="M0 55L35.5 60.3C71 65.7 142 76.3 213.2 76.3C284.3 76.3 355.7 65.7 426.8 82C498 98.3 569 141.7 640 145.3C711 149 782 113 853.2 116.5C924.3 120 995.7 163 1066.8 186.3C1138 209.7 1209 213.3 1280 195.3C1351 177.3 1422 137.7 1493.2 123.3C1564.3 109 1635.7 120 1706.8 120C1778 120 1849 109 1884.5 103.5L1920 98L1920 0L1884.5 0C1849 0 1778 0 1706.8 0C1635.7 0 1564.3 0 1493.2 0C1422 0 1351 0 1280 0C1209 0 1138 0 1066.8 0C995.7 0 924.3 0 853.2 0C782 0 711 0 640 0C569 0 498 0 426.8 0C355.7 0 284.3 0 213.2 0C142 0 71 0 35.5 0L0 0Z" fill="#8b33d4"></path><path d="M0 249L35.5 249C71 249 142 249 213.2 243.7C284.3 238.3 355.7 227.7 426.8 244C498 260.3 569 303.7 640 325.3C711 347 782 347 853.2 339.7C924.3 332.3 995.7 317.7 1066.8 341C1138 364.3 1209 425.7 1280 422.2C1351 418.7 1422 350.3 1493.2 316.2C1564.3 282 1635.7 282 1706.8 289.2C1778 296.3 1849 310.7 1884.5 317.8L1920 325L1920 96L1884.5 101.5C1849 107 1778 118 1706.8 118C1635.7 118 1564.3 107 1493.2 121.3C1422 135.7 1351 175.3 1280 193.3C1209 211.3 1138 207.7 1066.8 184.3C995.7 161 924.3 118 853.2 114.5C782 111 711 147 640 143.3C569 139.7 498 96.3 426.8 80C355.7 63.7 284.3 74.3 213.2 74.3C142 74.3 71 63.7 35.5 58.3L0 53Z" fill="#7125b0"></path><path d="M0 498L35.5 507C71 516 142 534 213.2 519.5C284.3 505 355.7 458 426.8 441.8C498 425.7 569 440.3 640 462C711 483.7 782 512.3 853.2 526.7C924.3 541 995.7 541 1066.8 573.3C1138 605.7 1209 670.3 1280 654.2C1351 638 1422 541 1493.2 523C1564.3 505 1635.7 566 1706.8 616.3C1778 666.7 1849 706.3 1884.5 726.2L1920 746L1920 323L1884.5 315.8C1849 308.7 1778 294.3 1706.8 287.2C1635.7 280 1564.3 280 1493.2 314.2C1422 348.3 1351 416.7 1280 420.2C1209 423.7 1138 362.3 1066.8 339C995.7 315.7 924.3 330.3 853.2 337.7C782 345 711 345 640 323.3C569 301.7 498 258.3 426.8 242C355.7 225.7 284.3 236.3 213.2 241.7C142 247 71 247 35.5 247L0 247Z" fill="#58188e"></path><path d="M0 962L35.5 956.7C71 951.3 142 940.7 213.2 928.2C284.3 915.7 355.7 901.3 426.8 890.5C498 879.7 569 872.3 640 881.3C711 890.3 782 915.7 853.2 915.7C924.3 915.7 995.7 890.3 1066.8 902.8C1138 915.3 1209 965.7 1280 981.8C1351 998 1422 980 1493.2 962C1564.3 944 1635.7 926 1706.8 936.8C1778 947.7 1849 987.3 1884.5 1007.2L1920 1027L1920 744L1884.5 724.2C1849 704.3 1778 664.7 1706.8 614.3C1635.7 564 1564.3 503 1493.2 521C1422 539 1351 636 1280 652.2C1209 668.3 1138 603.7 1066.8 571.3C995.7 539 924.3 539 853.2 524.7C782 510.3 711 481.7 640 460C569 438.3 498 423.7 426.8 439.8C355.7 456 284.3 503 213.2 517.5C142 532 71 514 35.5 505L0 496Z" fill="#400b6d"></path><path d="M0 1081L35.5 1081C71 1081 142 1081 213.2 1081C284.3 1081 355.7 1081 426.8 1081C498 1081 569 1081 640 1081C711 1081 782 1081 853.2 1081C924.3 1081 995.7 1081 1066.8 1081C1138 1081 1209 1081 1280 1081C1351 1081 1422 1081 1493.2 1081C1564.3 1081 1635.7 1081 1706.8 1081C1778 1081 1849 1081 1884.5 1081L1920 1081L1920 1025L1884.5 1005.2C1849 985.3 1778 945.7 1706.8 934.8C1635.7 924 1564.3 942 1493.2 960C1422 978 1351 996 1280 979.8C1209 963.7 1138 913.3 1066.8 900.8C995.7 888.3 924.3 913.7 853.2 913.7C782 913.7 711 888.3 640 879.3C569 870.3 498 877.7 426.8 888.5C355.7 899.3 284.3 913.7 213.2 926.2C142 938.7 71 949.3 35.5 954.7L0 960Z" fill="#2a014e"></path></svg>